<svg xmlns="http://www.w3.org/2000/svg" xmlns:xlink="http://www.w3.org/1999/xlink" enable-background="new 0 0 64 64" viewBox="0 0 64 64"><pattern id="q" width="37.46" height="40.5" x="-588" y="-588" overflow="visible" patternUnits="userSpaceOnUse" viewBox="0 -40.5 37.46 40.5"><rect width="37.46" height="40.5" y="-40.5" fill="none"/><rect width="37.46" height="40.5" y="-40.5" fill="#f06051"/></pattern><pattern id="c" width="37.46" height="40.5" x="-588" y="-588" overflow="visible" patternUnits="userSpaceOnUse" viewBox="0 -40.5 37.46 40.5"><rect width="37.46" height="40.5" y="-40.5" fill="none"/><rect width="37.46" height="40.5" y="-40.5" fill="#fcbe5e"/></pattern><pattern id="e" width="37.46" height="40.5" x="-588" y="-588" overflow="visible" patternUnits="userSpaceOnUse" viewBox="0 -40.5 37.46 40.5"><rect width="37.46" height="40.5" y="-40.5" fill="none"/><rect width="37.46" height="40.5" y="-40.5" fill="#f5a84b"/></pattern><pattern id="g" width="37.46" height="40.5" x="-588" y="-588" overflow="visible" patternUnits="userSpaceOnUse" viewBox="0 -40.5 37.46 40.5"><rect width="37.46" height="40.5" y="-40.5" fill="none"/><rect width="37.46" height="40.5" y="-40.5" fill="#2ea1da"/></pattern><pattern id="i" width="37.46" height="40.5" x="-588" y="-588" overflow="visible" patternUnits="userSpaceOnUse" viewBox="0 -40.5 37.46 40.5"><rect width="37.46" height="40.5" y="-40.5" fill="none"/><rect width="37.46" height="40.5" y="-40.5" fill="#1392b7"/></pattern><pattern id="l" width="37.46" height="40.5" x="-588" y="-588" overflow="visible" patternUnits="userSpaceOnUse" viewBox="0 -40.5 37.46 40.5"><rect width="37.46" height="40.5" y="-40.5" fill="none"/><rect width="37.46" height="40.5" y="-40.5" fill="#d1d6d8"/></pattern><pattern id="n" width="37.46" height="40.5" x="-588" y="-588" overflow="visible" patternUnits="userSpaceOnUse" viewBox="0 -40.5 37.46 40.5"><rect width="37.46" height="40.5" y="-40.5" fill="none"/><rect width="37.46" height="40.5" y="-40.5" fill="#c0c1c3"/></pattern><pattern id="a" width="103.53" height="98.99" x="-588" y="-588" overflow="visible" patternUnits="userSpaceOnUse" viewBox="0 -98.99 103.53 98.99"><rect width="103.53" height="98.99" y="-98.99" fill="none"/><rect width="103.53" height="98.99" y="-98.99" fill="#173651"/></pattern><pattern id="b" patternTransform="translate(-86.474 -93.022)" xlink:href="#a"/><path fill="url(#b)" d="M44.58,7.7h-5.12v-1c0-1.17-1.08-2.13-2.4-2.13h-5.19c-0.28,0-0.47-0.14-0.48-0.16
		c0.01-0.43-0.06-0.86-0.19-1.28c-0.51-1.57-2.07-2.77-3.95-3.05c-1.69-0.25-3.39,0.19-4.57,1.21c-0.95,0.8-1.46,1.88-1.46,3.05
		c0,0.04-0.03,0.07-0.06,0.1c-0.08,0.09-0.23,0.14-0.39,0.14h-5.23c-1.32,0-2.4,0.96-2.4,2.13v1H8.03c-2.64,0-4.78,2.14-4.78,4.78
		v46.73C3.25,61.85,5.4,64,8.03,64h36.55c2.64,0,4.78-2.15,4.78-4.79V12.48C49.36,9.84,47.22,7.7,44.58,7.7z M15.09,6.7
		c0.01-0.04,0.16-0.19,0.46-0.19h5.23c0.68,0,1.31-0.25,1.76-0.71c0.41-0.41,0.62-0.93,0.62-1.47V4.29
		c0.01-0.56,0.28-1.11,0.79-1.54c0.76-0.65,1.88-0.93,3.01-0.76c1.15,0.17,2.11,0.87,2.4,1.75c0.07,0.2,0.11,0.42,0.1,0.62
		c-0.01,0.51,0.18,1.02,0.57,1.41c0.46,0.48,1.13,0.75,1.85,0.75h5.19c0.3,0,0.45,0.16,0.46,0.19v3.93
		c-0.01,0.05-0.15,0.19-0.46,0.19H15.55c-0.3,0-0.45-0.15-0.46-0.18V6.7z M47.42,59.21c0,1.57-1.27,2.85-2.84,2.85H8.03
		c-0.11,0-0.2-0.01-0.31-0.02c-0.06,0-0.11-0.01-0.16-0.03C7.45,62,7.35,61.98,7.25,61.94C7.12,61.92,7,61.87,6.88,61.81
		c-0.12-0.05-0.23-0.11-0.34-0.17c-0.11-0.07-0.21-0.15-0.31-0.22c-0.12-0.1-0.22-0.2-0.33-0.32c-0.07-0.08-0.13-0.16-0.18-0.24
		c-0.08-0.11-0.15-0.21-0.2-0.33c-0.2-0.4-0.32-0.83-0.32-1.31V12.48c0-1.57,1.27-2.84,2.84-2.84h5.12v1c0,1.17,1.08,2.12,2.4,2.12
		h21.52c1.32,0,2.4-0.95,2.4-2.12v-1h5.12c0.47,0,0.91,0.12,1.3,0.31c0,0,0.01,0,0.01,0.01c0.17,0.09,0.34,0.2,0.49,0.33
		c0.07,0.06,0.14,0.12,0.2,0.18c0.16,0.16,0.3,0.34,0.43,0.53c0.06,0.1,0.11,0.2,0.16,0.31c0.06,0.12,0.1,0.24,0.14,0.37
		c0.03,0.1,0.06,0.2,0.07,0.31c0.02,0.06,0.03,0.12,0.03,0.17c0.01,0.1,0.02,0.2,0.02,0.31V59.21z"/><pattern id="d" patternTransform="translate(-2.724 -25.467)" xlink:href="#c"/><path fill="url(#d)" d="M47.4,12.17c0-0.06-0.01-0.12-0.03-0.17c-0.01-0.11-0.04-0.21-0.07-0.31c-0.03-0.13-0.08-0.25-0.14-0.37
		c-0.05-0.11-0.1-0.21-0.16-0.31c-0.13-0.19-0.26-0.38-0.43-0.53c-0.07-0.07-0.14-0.13-0.2-0.18c-0.16-0.13-0.32-0.24-0.49-0.33
		c0-0.01-0.01-0.01-0.01-0.01c-0.39-0.19-0.83-0.31-1.3-0.31h-5.12v1c0,1.17-1.08,2.12-2.4,2.12H15.55c-1.32,0-2.4-0.95-2.4-2.12v-1
		H8.03c-1.57,0-2.84,1.27-2.84,2.84v46.73c0,0.48,0.12,0.91,0.32,1.31c0.06,0.12,0.13,0.22,0.2,0.33c0.06,0.09,0.12,0.16,0.18,0.24
		c0.11,0.12,0.21,0.22,0.33,0.32c0.1,0.08,0.2,0.16,0.31,0.22c0.11,0.07,0.22,0.13,0.34,0.17c0.12,0.06,0.24,0.11,0.37,0.14
		c0.1,0.03,0.2,0.06,0.31,0.07c0.06,0.02,0.11,0.03,0.16,0.03c0.11,0.01,0.2,0.02,0.31,0.02h36.55c1.57,0,2.84-1.28,2.84-2.85V12.48
		C47.42,12.37,47.41,12.27,47.4,12.17z M8.25,16.14c0-0.53,0.44-0.97,0.97-0.97H43.4c0.53,0,0.97,0.44,0.97,0.97v42.55
		c0,0.53-0.44,0.97-0.97,0.97H9.22c-0.53,0-0.97-0.44-0.97-0.97V16.14z"/><pattern id="f" patternTransform="translate(-2.724 -25.467)" xlink:href="#e"/><path fill="url(#f)" d="M47.42,12.48v46.73c0,1.57-1.27,2.85-2.84,2.85H8.03c-1.1,0-2.05-0.63-2.52-1.54
		c0.39,0.19,0.82,0.31,1.29,0.31h36.55c1.57,0,2.84-1.28,2.84-2.85V11.25c0-0.47-0.12-0.91-0.31-1.3
		C46.79,10.43,47.42,11.38,47.42,12.48z"/><pattern id="h" patternTransform="translate(-2.724 -25.467)" xlink:href="#g"/><path fill="url(#h)" d="M37.52,6.7v3.93c-0.01,0.05-0.15,0.19-0.46,0.19H15.55c-0.3,0-0.45-0.15-0.46-0.18V6.7
		c0.01-0.04,0.16-0.19,0.46-0.19h5.23c0.68,0,1.31-0.25,1.76-0.71c0.41-0.41,0.62-0.93,0.62-1.47V4.29
		c0.01-0.56,0.28-1.11,0.79-1.54c0.76-0.65,1.88-0.93,3.01-0.76c1.15,0.17,2.11,0.87,2.4,1.75c0.07,0.2,0.11,0.42,0.1,0.62
		c-0.01,0.51,0.18,1.02,0.57,1.41c0.46,0.48,1.13,0.75,1.85,0.75h5.19C37.37,6.51,37.51,6.66,37.52,6.7z"/><pattern id="j" patternTransform="translate(-2.724 -25.467)" xlink:href="#i"/><path fill="url(#j)" d="M37.52,6.7v3.93c-0.01,0.05-0.15,0.19-0.46,0.19H15.55c-0.3,0-0.45-0.15-0.46-0.18V9.35h20.08
		c0.3,0,0.45-0.15,0.46-0.19V6.51h1.43C37.37,6.51,37.51,6.66,37.52,6.7z"/><pattern id="k" patternTransform="translate(-86.474 -93.022)" xlink:href="#a"/><path fill="url(#k)" d="M43.4,15.17H9.22c-0.53,0-0.97,0.44-0.97,0.97v42.55c0,0.53,0.44,0.97,0.97,0.97H43.4
		c0.53,0,0.97-0.44,0.97-0.97V16.14C44.37,15.6,43.93,15.17,43.4,15.17z M42.43,57.72H10.19V17.11h32.24V57.72z"/><pattern id="m" patternTransform="translate(-2.724 -25.467)" xlink:href="#l"/><path fill="url(#m)" d="M10.19,17.11v40.61h32.24V17.11H10.19z M21.34,54.33c0,0.53-0.43,0.97-0.97,0.97h-4.85
		c-0.53,0-0.97-0.44-0.97-0.97v-4.85c0-0.54,0.44-0.97,0.97-0.97h4.85c0.54,0,0.97,0.43,0.97,0.97V54.33z M21.34,44.66
		c0,0.53-0.43,0.97-0.97,0.97h-4.85c-0.53,0-0.97-0.44-0.97-0.97v-4.85c0-0.53,0.44-0.97,0.97-0.97h4.85c0.54,0,0.97,0.44,0.97,0.97
		V44.66z M21.34,35.01c0,0.53-0.43,0.97-0.97,0.97h-4.85c-0.53,0-0.97-0.44-0.97-0.97v-4.85c0-0.53,0.44-0.97,0.97-0.97h4.85
		c0.54,0,0.97,0.44,0.97,0.97V35.01z M21.34,25.34c0,0.54-0.43,0.97-0.97,0.97h-4.85c-0.53,0-0.97-0.43-0.97-0.97v-4.85
		c0-0.53,0.44-0.97,0.97-0.97h4.85c0.54,0,0.97,0.44,0.97,0.97V25.34z M37.1,52.88H24.12c-0.53,0-0.97-0.44-0.97-0.97
		c0-0.54,0.44-0.97,0.97-0.97H37.1c0.53,0,0.97,0.43,0.97,0.97C38.07,52.44,37.63,52.88,37.1,52.88z M37.1,43.21H24.12
		c-0.53,0-0.97-0.44-0.97-0.97c0-0.53,0.44-0.97,0.97-0.97H37.1c0.53,0,0.97,0.44,0.97,0.97C38.07,42.77,37.63,43.21,37.1,43.21z
		 M37.1,33.55H24.12c-0.53,0-0.97-0.44-0.97-0.97c0-0.53,0.44-0.97,0.97-0.97H37.1c0.53,0,0.97,0.44,0.97,0.97
		C38.07,33.12,37.63,33.55,37.1,33.55z M37.1,23.88H24.12c-0.53,0-0.97-0.43-0.97-0.97c0-0.53,0.44-0.97,0.97-0.97H37.1
		c0.53,0,0.97,0.44,0.97,0.97C38.07,23.46,37.63,23.88,37.1,23.88z"/><pattern id="o" patternTransform="translate(-2.724 -25.467)" xlink:href="#n"/><polygon fill="url(#o)" points="42.43 17.11 42.43 57.72 10.19 57.72 10.19 55.78 40.49 55.78 40.49 17.11"/><pattern id="p" patternTransform="translate(-86.474 -93.022)" xlink:href="#a"/><path fill="url(#p)" d="M20.37,19.52h-4.85c-0.53,0-0.97,0.44-0.97,0.97v4.85c0,0.54,0.44,0.97,0.97,0.97h4.85
		c0.54,0,0.97-0.43,0.97-0.97v-4.85C21.34,19.96,20.91,19.52,20.37,19.52z M19.4,24.37h-2.91v-2.91h2.91V24.37z"/><pattern id="r" patternTransform="translate(-2.724 -25.467)" xlink:href="#q"/><rect width="2.91" height="2.91" x="16.49" y="21.46" fill="url(#r)"/><pattern id="s" patternTransform="translate(-86.474 -93.022)" xlink:href="#a"/><path fill="url(#s)" d="M20.37,29.19h-4.85c-0.53,0-0.97,0.44-0.97,0.97v4.85c0,0.53,0.44,0.97,0.97,0.97h4.85
		c0.54,0,0.97-0.44,0.97-0.97v-4.85C21.34,29.62,20.91,29.19,20.37,29.19z M19.4,34.04h-2.91v-2.91h2.91V34.04z"/><pattern id="t" patternTransform="translate(-2.724 -25.467)" xlink:href="#q"/><rect width="2.91" height="2.91" x="16.49" y="31.13" fill="url(#t)"/><pattern id="u" patternTransform="translate(-86.474 -93.022)" xlink:href="#a"/><path fill="url(#u)" d="M20.37,38.85h-4.85c-0.53,0-0.97,0.44-0.97,0.97v4.85c0,0.53,0.44,0.97,0.97,0.97h4.85
		c0.54,0,0.97-0.44,0.97-0.97v-4.85C21.34,39.28,20.91,38.85,20.37,38.85z M19.4,43.69h-2.91v-2.91h2.91V43.69z"/><pattern id="v" patternTransform="translate(-2.724 -25.467)" xlink:href="#q"/><rect width="2.91" height="2.91" x="16.49" y="40.79" fill="url(#v)"/><pattern id="w" patternTransform="translate(-86.474 -93.022)" xlink:href="#a"/><path fill="url(#w)" d="M20.37,48.51h-4.85c-0.53,0-0.97,0.43-0.97,0.97v4.85c0,0.53,0.44,0.97,0.97,0.97h4.85
		c0.54,0,0.97-0.44,0.97-0.97v-4.85C21.34,48.94,20.91,48.51,20.37,48.51z M19.4,53.36h-2.91v-2.91h2.91V53.36z"/><pattern id="x" patternTransform="translate(-2.724 -25.467)" xlink:href="#q"/><rect width="2.91" height="2.91" x="16.49" y="50.45" fill="url(#x)"/><pattern id="y" patternTransform="translate(-86.474 -93.022)" xlink:href="#a"/><path fill="url(#y)" d="M38.07,22.91c0,0.54-0.44,0.97-0.97,0.97H24.12c-0.53,0-0.97-0.43-0.97-0.97c0-0.53,0.44-0.97,0.97-0.97H37.1
		C37.63,21.95,38.07,22.38,38.07,22.91z"/><pattern id="z" patternTransform="translate(-86.474 -93.022)" xlink:href="#a"/><path fill="url(#z)" d="M38.07,32.58c0,0.53-0.44,0.97-0.97,0.97H24.12c-0.53,0-0.97-0.44-0.97-0.97c0-0.53,0.44-0.97,0.97-0.97H37.1
		C37.63,31.61,38.07,32.05,38.07,32.58z"/><pattern id="A" patternTransform="translate(-86.474 -93.022)" xlink:href="#a"/><path fill="url(#A)" d="M38.07,42.24c0,0.53-0.44,0.97-0.97,0.97H24.12c-0.53,0-0.97-0.44-0.97-0.97c0-0.53,0.44-0.97,0.97-0.97H37.1
		C37.63,41.27,38.07,41.71,38.07,42.24z"/><pattern id="B" patternTransform="translate(-86.474 -93.022)" xlink:href="#a"/><path fill="url(#B)" d="M38.07,51.91c0,0.53-0.44,0.97-0.97,0.97H24.12c-0.53,0-0.97-0.44-0.97-0.97c0-0.54,0.44-0.97,0.97-0.97H37.1
		C37.63,50.94,38.07,51.37,38.07,51.91z"/><pattern id="C" patternTransform="translate(-86.474 -93.022)" xlink:href="#a"/><path fill="url(#C)" d="M60.75,55.85c0-0.03-0.02-0.07-0.03-0.1l-0.08-29.88c0,0,0,0,0-0.01c0-0.03-0.01-0.07-0.02-0.1
		c-0.01-0.1-0.02-0.18-0.06-0.27c0,0,0,0,0-0.01l-3.24-7.46c-0.16-0.36-0.53-0.57-0.9-0.58c-0.39,0-0.74,0.24-0.88,0.6l-3,7.47
		l-0.01,0.02c-0.02,0.06-0.02,0.12-0.03,0.17c-0.01,0.06-0.04,0.12-0.04,0.18v0.02l0.09,34.14C52.56,62.24,54.33,64,56.5,64
		c0,0,0,0,0.01,0l0.29-0.01c1.06,0,2.05-0.41,2.78-1.15c0.75-0.75,1.15-1.74,1.15-2.79l-0.02-4.08
		C60.73,55.92,60.75,55.89,60.75,55.85z M56.47,20.94l1.73,3.99h-3.33L56.47,20.94z M58.71,26.85l0.07,28.04l-4.3,0.01l-0.07-28.03
		L58.71,26.85z M58.22,61.47c-0.38,0.38-0.88,0.58-1.42,0.58l-0.3,0.01c-0.55,0-1.05-0.22-1.42-0.59c-0.36-0.36-0.58-0.86-0.59-1.41
		l-0.01-3.22l4.31-0.01l0.01,3.22C58.8,60.59,58.58,61.09,58.22,61.47z"/><pattern id="D" patternTransform="translate(-2.724 -25.467)" xlink:href="#g"/><polygon fill="url(#D)" points="58.78 54.89 54.48 54.9 54.41 26.87 58.71 26.85"/><pattern id="E" patternTransform="translate(-2.724 -25.467)" xlink:href="#i"/><polygon fill="url(#E)" points="58.78 54.89 54.48 54.9 54.48 53.66 57.84 53.65 57.77 26.85 58.71 26.85"/><pattern id="F" patternTransform="translate(-2.724 -25.467)" xlink:href="#l"/><polygon fill="url(#F)" points="58.2 24.92 54.87 24.92 56.47 20.94"/><pattern id="G" patternTransform="translate(-2.724 -25.467)" xlink:href="#q"/><path fill="url(#G)" d="M58.8,60.05c0,0.53-0.21,1.04-0.58,1.42c-0.38,0.38-0.88,0.58-1.42,0.58l-0.3,0.01
		c-0.55,0-1.05-0.22-1.42-0.59c-0.36-0.36-0.58-0.86-0.59-1.41l-0.01-3.22l4.31-0.01L58.8,60.05z"/></svg>